<?xml version="1.0" encoding="utf-8"?>
<!-- Generator: Adobe Illustrator 16.0.0, SVG Export Plug-In . SVG Version: 6.00 Build 0)  -->
<!DOCTYPE svg PUBLIC "-//W3C//DTD SVG 1.1//EN" "http://www.w3.org/Graphics/SVG/1.1/DTD/svg11.dtd">
<svg version="1.1" id="Layer_1" xmlns="http://www.w3.org/2000/svg" xmlns:xlink="http://www.w3.org/1999/xlink" x="0px" y="0px"
	 width="800px" height="140.229px" viewBox="0 0 800 140.229" enable-background="new 0 0 800 140.229" xml:space="preserve">
<g>
	<g>
		<defs>
			<path id="SVGID_1_" d="M15.727,74.342c-3.314,3.314-8.688,3.315-12.003,0.001l-0.851-0.852c-3.314-3.313-3.314-8.688,0-12.003
				l12.68-12.68c3.314-3.314,8.688-3.315,12.002,0l0.852,0.852c3.314,3.314,3.313,8.688-0.001,12.002L15.727,74.342z"/>
		</defs>
		<clipPath id="SVGID_2_">
			<use xlink:href="#SVGID_1_"  overflow="visible"/>
		</clipPath>
		<path clip-path="url(#SVGID_2_)" fill="#F9A224" d="M0,45.936h31.279v31.278H0V45.936z"/>
	</g>
</g>
<g>
	<g>
		<defs>
			<path id="SVGID_3_" d="M49.146,17.727c-3.314-3.315-3.314-8.688,0-12.003l0.852-0.852c3.314-3.313,8.688-3.313,12.003,0
				l12.68,12.681c3.314,3.313,3.314,8.688,0,12.002l-0.851,0.852c-3.314,3.314-8.688,3.313-12.003-0.001L49.146,17.727z"/>
		</defs>
		<clipPath id="SVGID_4_">
			<use xlink:href="#SVGID_3_"  overflow="visible"/>
		</clipPath>
		<path clip-path="url(#SVGID_4_)" fill="#4D9F68" d="M46.273,2h31.278v31.279H46.273V2z"/>
	</g>
</g>
<g>
	<g>
		<defs>
			<path id="SVGID_5_" d="M20.333,39.495c-4.688,0-8.487-3.8-8.487-8.486v-1.204c0-4.688,3.8-8.487,8.487-8.487h17.932
				c4.688,0,8.488,3.8,8.488,8.487v1.204c0,4.687-3.8,8.486-8.488,8.486H20.333z"/>
		</defs>
		<clipPath id="SVGID_6_">
			<use xlink:href="#SVGID_5_"  overflow="visible"/>
		</clipPath>
		<path clip-path="url(#SVGID_6_)" fill="#FFCA36" d="M11.459,20.93h35.68v18.951h-35.68V20.93z"/>
	</g>
</g>
<g>
	<g>
		<g>
			<defs>
				<path id="SVGID_7_" d="M38.025,101.855c0,4.688-3.8,8.486-8.487,8.486h-1.205c-4.687,0-8.486-3.8-8.486-8.486V83.923
					c0-4.688,3.799-8.487,8.487-8.487h1.204c4.687,0,8.487,3.801,8.487,8.487V101.855z"/>
			</defs>
			<clipPath id="SVGID_8_">
				<use xlink:href="#SVGID_7_"  overflow="visible"/>
			</clipPath>
			<path clip-path="url(#SVGID_8_)" fill="#FD583B" d="M19.46,75.049h18.951v35.682H19.46V75.049z"/>
		</g>
	</g>
</g>
<g>
	<g>
		<g>
			<defs>
				<path id="SVGID_9_" d="M74.165,105.917c3.314,3.315,3.315,8.688,0,12.003l-0.852,0.853c-3.314,3.313-8.688,3.313-12.003,0
					l-12.68-12.681c-3.314-3.313-3.314-8.688,0-12.003l0.852-0.852c3.314-3.314,8.688-3.314,12.003,0.001L74.165,105.917
					L74.165,105.917z"/>
			</defs>
			<clipPath id="SVGID_10_">
				<use xlink:href="#SVGID_9_"  overflow="visible"/>
			</clipPath>
			<path clip-path="url(#SVGID_10_)" fill="#FD46AC" d="M45.759,90.365h31.279v31.278H45.759V90.365z"/>
		</g>
	</g>
</g>
<g>
	<g>
		<g>
			<defs>
				<path id="SVGID_11_" d="M102.978,84.149c4.688,0,8.487,3.8,8.487,8.487v1.203c0,4.688-3.8,8.486-8.487,8.486H85.046
					c-4.688,0-8.488-3.8-8.488-8.487v-1.202c0-4.688,3.8-8.487,8.487-8.487H102.978L102.978,84.149z"/>
			</defs>
			<clipPath id="SVGID_12_">
				<use xlink:href="#SVGID_11_"  overflow="visible"/>
			</clipPath>
			<path clip-path="url(#SVGID_12_)" fill="#60668D" d="M76.172,83.762h35.68v18.95h-35.68V83.762z"/>
		</g>
	</g>
</g>
<g>
	<g>
		<g>
			<defs>
				<path id="SVGID_13_" d="M107.584,49.302c3.314-3.314,8.688-3.315,12.003,0l0.851,0.852c3.314,3.314,3.314,8.688,0,12.002
					l-12.68,12.679c-3.314,3.315-8.688,3.315-12.002,0.001l-0.852-0.852c-3.314-3.314-3.314-8.688,0-12.002L107.584,49.302
					L107.584,49.302z"/>
			</defs>
			<clipPath id="SVGID_14_">
				<use xlink:href="#SVGID_13_"  overflow="visible"/>
			</clipPath>
			<path clip-path="url(#SVGID_14_)" fill="#5363D6" d="M92.032,46.429h31.278v31.277H92.033L92.032,46.429z"/>
		</g>
	</g>
</g>
<g>
	<g>
		<g>
			<defs>
				<path id="SVGID_15_" d="M85.286,21.789c0-4.688,3.8-8.486,8.487-8.486h1.204c4.687,0,8.487,3.8,8.487,8.487v17.932
					c0,4.688-3.8,8.488-8.487,8.488h-1.204c-4.687,0-8.487-3.801-8.487-8.488V21.789z"/>
			</defs>
			<clipPath id="SVGID_16_">
				<use xlink:href="#SVGID_15_"  overflow="visible"/>
			</clipPath>
			<path clip-path="url(#SVGID_16_)" fill="#29B8BA" d="M84.9,12.915h18.951v35.681H84.9V12.915z"/>
		</g>
	</g>
</g>
<g>
	<path fill="#5565CE" d="M155.393,107.461h14.386l0.046-9.133h0.256c2.199,3.716,5.159,6.42,8.881,8.108
		c3.722,1.688,7.74,2.534,12.054,2.534c4.653,0,8.839-0.825,12.561-2.473c3.723-1.646,6.895-3.907,9.517-6.781
		c2.622-2.872,4.609-6.253,5.962-10.14s2.031-8.069,2.031-12.549s-0.72-8.661-2.157-12.549c-1.437-3.886-3.446-7.266-6.023-10.139
		c-2.58-2.874-5.687-5.135-9.323-6.781c-3.637-1.647-7.611-2.473-11.923-2.473c-2.875,0-5.413,0.295-7.61,0.886
		c-2.199,0.591-4.144,1.352-5.835,2.281c-1.691,0.929-3.13,1.921-4.313,2.978c-1.184,1.056-2.155,2.09-2.916,3.103h-0.402V11.615
		h-15.191L155.393,107.461L155.393,107.461z M204.688,83.876c-0.805,2.197-1.99,4.144-3.556,5.833
		c-1.565,1.691-3.45,3.044-5.651,4.059c-2.202,1.016-4.7,1.521-7.493,1.521c-2.795,0-5.293-0.506-7.494-1.521
		c-2.202-1.015-4.087-2.366-5.652-4.059c-1.566-1.69-2.751-3.636-3.556-5.833c-0.805-2.196-1.206-4.479-1.206-6.848
		c0-2.367,0.401-4.649,1.206-6.847s1.99-4.142,3.556-5.832c1.565-1.691,3.45-3.043,5.652-4.06c2.201-1.014,4.699-1.521,7.494-1.521
		c2.793,0,5.291,0.507,7.493,1.521c2.201,1.017,4.085,2.367,5.651,4.06c1.566,1.69,2.751,3.635,3.556,5.832
		c0.805,2.196,1.208,4.479,1.208,6.847S205.493,81.677,204.688,83.876L204.688,83.876z M227.604,107.461h15.191V74.903
		c0-0.844,0.19-2.11,0.57-3.801c0.38-1.688,1.14-3.378,2.281-5.068c1.142-1.688,2.789-3.188,4.944-4.497
		c2.155-1.308,5.008-1.963,8.558-1.963c1.182,0,2.386,0.104,3.612,0.309c1.225,0.204,2.471,0.472,3.74,0.798V45.992
		c-0.931-0.257-1.839-0.473-2.726-0.646c-0.886-0.173-1.795-0.259-2.726-0.259c-4.056,0-7.647,0.975-10.774,2.924
		c-3.128,1.949-5.536,4.702-7.225,8.259h-0.254v-9.673h-15.191V107.461L227.604,107.461z M273.09,107.461h15.191V46.596H273.09
		V107.461z M273.701,32.309c1.817,1.812,4.119,2.718,6.907,2.718c2.788,0,5.132-0.863,7.034-2.592
		c1.9-1.729,2.852-3.898,2.852-6.513c0-2.612-0.951-4.783-2.852-6.513c-1.902-1.728-4.246-2.592-7.034-2.592
		c-2.788,0-5.09,0.907-6.907,2.719c-1.817,1.812-2.724,3.941-2.724,6.386C270.978,28.368,271.885,30.496,273.701,32.309
		L273.701,32.309z M348.2,46.596l-0.047,9.133h-0.256c-2.201-3.716-5.161-6.418-8.883-8.108c-3.723-1.688-7.738-2.533-12.052-2.533
		c-4.738,0-8.946,0.825-12.626,2.475c-3.681,1.65-6.83,3.912-9.452,6.788s-4.61,6.259-5.963,10.149
		c-1.354,3.892-2.03,8.076-2.03,12.559c0,4.312,0.718,8.374,2.155,12.18c1.437,3.807,3.485,7.104,6.148,9.896
		c2.663,2.791,5.852,5.012,9.571,6.66c3.72,1.65,7.86,2.475,12.425,2.475c3.804,0,7.521-0.74,11.154-2.217
		c3.635-1.478,6.551-3.695,8.748-6.65h0.302v4.422c0,3.032-0.316,5.79-0.951,8.274c-0.635,2.483-1.69,4.609-3.169,6.381
		c-1.479,1.769-3.465,3.157-5.958,4.17c-2.492,1.01-5.557,1.516-9.188,1.516c-4.311,0-8.114-0.761-11.408-2.281
		c-3.297-1.521-6.466-3.677-9.508-6.465l-9.126,12.42c4.31,3.802,8.999,6.418,14.069,7.854c5.069,1.436,10.437,2.153,16.099,2.153
		c5.915,0,11.026-0.847,15.336-2.534c4.309-1.691,7.877-4.077,10.705-7.16c2.826-3.085,4.915-6.844,6.266-11.279
		c1.351-4.437,2.026-9.399,2.026-14.892V46.599H348.2V46.596L348.2,46.596z M343.366,63.722c3.224,3.303,4.835,7.619,4.835,12.953
		c0,2.54-0.426,4.912-1.271,7.113c-0.85,2.2-2.057,4.085-3.625,5.65c-1.568,1.566-3.476,2.816-5.722,3.748
		c-2.248,0.931-4.771,1.396-7.567,1.396c-2.543,0-4.919-0.465-7.122-1.396c-2.204-0.932-4.112-2.201-5.722-3.812
		c-1.611-1.608-2.863-3.473-3.753-5.588c-0.891-2.116-1.334-4.403-1.334-6.857c0-2.71,0.443-5.187,1.334-7.432
		c0.89-2.243,2.119-4.147,3.688-5.714c1.569-1.565,3.456-2.793,5.659-3.683c2.204-0.89,4.664-1.334,7.377-1.334
		C335.736,58.769,340.144,60.422,343.366,63.722L343.366,63.722z M388.419,11.616h-15.191v95.844h15.191V74.237
		c0-2.027,0.253-3.972,0.76-5.832c0.506-1.859,1.328-3.508,2.466-4.944c1.139-1.438,2.573-2.578,4.303-3.424
		s3.857-1.269,6.388-1.269c2.615,0,4.682,0.613,6.201,1.839c1.518,1.226,2.635,2.748,3.352,4.565
		c0.719,1.816,1.16,3.761,1.328,5.832c0.17,2.071,0.254,3.951,0.254,5.643v30.812h15.191V69.046c0-3.125-0.381-6.126-1.141-8.999
		c-0.76-2.874-2.023-5.409-3.797-7.606c-1.771-2.198-4.07-3.972-6.896-5.324c-2.826-1.352-6.266-2.028-10.314-2.028
		c-4.725,0-8.584,1.035-11.581,3.104s-5.083,4.37-6.264,6.904h-0.249L388.419,11.616L388.419,11.616z M445.182,59.574v27.864
		c0,3.546,0.273,6.671,0.822,9.373s1.561,4.961,3.039,6.775c1.479,1.815,3.502,3.166,6.076,4.054
		c2.572,0.886,5.889,1.329,9.943,1.329c1.773,0,3.824-0.148,6.146-0.442c2.322-0.298,4.289-0.825,5.895-1.585V94.137
		c-0.93,0.659-2.197,1.134-3.803,1.423s-3.084,0.432-4.436,0.432c-3.383,0-5.643-0.885-6.783-2.654
		c-1.143-1.771-1.709-4.174-1.709-7.209V59.574h16.73V46.596h-16.73v-17.62h-15.191v17.62h-12.549v12.978H445.182L445.182,59.574z
		 M502.459,107.461h15.717L530.98,65.87h0.252l14.451,41.591h15.084l20.664-60.864h-15.34l-12.676,42.605h-0.254l-13.184-42.605
		H523.5l-12.297,42.605h-0.252l-13.186-42.605h-16.479L502.459,107.461L502.459,107.461z M601.023,11.616h-15.189v95.844h15.189
		V74.237c0-2.027,0.254-3.972,0.762-5.832c0.506-1.859,1.326-3.508,2.465-4.944c1.139-1.438,2.572-2.578,4.303-3.424
		c1.73-0.845,3.857-1.269,6.389-1.269c2.613,0,4.682,0.613,6.199,1.839c1.52,1.226,2.637,2.748,3.354,4.565
		c0.717,1.816,1.158,3.761,1.328,5.832s0.254,3.951,0.254,5.643v30.812h15.189V69.046c0-3.125-0.379-6.126-1.139-8.999
		c-0.76-2.874-2.025-5.409-3.797-7.606c-1.771-2.198-4.07-3.972-6.896-5.324c-2.826-1.352-6.266-2.028-10.314-2.028
		c-4.727,0-8.586,1.035-11.58,3.104c-2.996,2.068-5.084,4.37-6.266,6.904h-0.248V11.616H601.023z M710.1,82.31v-4.18
		c0-5.315-0.697-10.021-2.094-14.115c-1.396-4.093-3.342-7.534-5.838-10.32c-2.494-2.785-5.498-4.915-9.008-6.393
		c-3.512-1.479-7.383-2.216-11.609-2.216c-4.568,0-8.885,0.76-12.943,2.281c-4.062,1.521-7.572,3.676-10.531,6.464
		c-2.963,2.789-5.311,6.148-7.043,10.078c-1.734,3.93-2.602,8.302-2.602,13.117c0,4.816,0.863,9.188,2.594,13.12
		c1.73,3.93,4.072,7.287,7.025,10.075c2.953,2.789,6.459,4.943,10.516,6.466c4.057,1.52,8.365,2.281,12.93,2.281
		c4.814,0,9.422-0.932,13.816-2.789c4.395-1.859,8.365-4.987,11.914-9.386l-10.9-8.237c-1.943,2.366-4.203,4.332-6.781,5.895
		c-2.578,1.563-5.77,2.344-9.568,2.344c-4.311,0-7.986-1.27-11.027-3.812c-3.045-2.542-4.818-6.102-5.324-10.675L710.1,82.31
		L710.1,82.31L710.1,82.31z M663.621,70.942c0.594-4.404,2.225-7.921,4.896-10.548c2.67-2.625,6.295-3.939,10.875-3.939
		c4.832,0,8.605,1.292,11.318,3.876c2.715,2.584,4.111,6.122,4.197,10.611H663.621L663.621,70.942z M777.83,82.31v-4.18
		c0-5.315-0.699-10.021-2.096-14.115c-1.395-4.093-3.342-7.534-5.838-10.32c-2.496-2.785-5.498-4.915-9.008-6.393
		c-3.512-1.479-7.383-2.216-11.611-2.216c-4.566,0-8.883,0.76-12.941,2.281c-4.062,1.521-7.572,3.676-10.533,6.464
		c-2.961,2.789-5.309,6.148-7.041,10.078c-1.736,3.93-2.602,8.302-2.602,13.117c0,4.816,0.863,9.188,2.596,13.12
		c1.729,3.93,4.07,7.287,7.023,10.075c2.953,2.789,6.459,4.943,10.516,6.466c4.055,1.52,8.365,2.281,12.93,2.281
		c4.816,0,9.422-0.932,13.816-2.789c4.393-1.859,8.365-4.987,11.916-9.386l-10.902-8.237c-1.943,2.366-4.205,4.332-6.783,5.895
		c-2.578,1.563-5.768,2.344-9.566,2.344c-4.311,0-7.986-1.27-11.029-3.812s-4.818-6.102-5.324-10.675L777.83,82.31L777.83,82.31
		L777.83,82.31z M731.352,70.942c0.592-4.404,2.223-7.921,4.896-10.548c2.67-2.625,6.295-3.939,10.873-3.939
		c4.832,0,8.605,1.292,11.318,3.876c2.715,2.584,4.113,6.122,4.197,10.611H731.352L731.352,70.942z M785.195,107.461h15.191V11.632
		h-15.191V107.461L785.195,107.461z"/>
</g>
</svg>
